<svg width="7" height="13" viewBox="0 0 7 13" fill="none" xmlns="http://www.w3.org/2000/svg">
<path d="M6.5306 6.95247L1.5306 11.9525C1.3897 12.0934 1.19861 12.1725 0.999348 12.1725C0.80009 12.1725 0.608994 12.0934 0.468098 11.9525C0.327201 11.8116 0.248047 11.6205 0.248047 11.4212C0.248047 11.222 0.327201 11.0309 0.468098 10.89L4.93747 6.42185L0.469348 1.95247C0.399583 1.88271 0.344243 1.79989 0.306486 1.70873C0.26873 1.61758 0.249297 1.51989 0.249297 1.42122C0.249297 1.32256 0.26873 1.22486 0.306486 1.13371C0.344243 1.04256 0.399583 0.959738 0.469348 0.889973C0.539113 0.820208 0.621936 0.764868 0.713088 0.727111C0.80424 0.689355 0.901936 0.669922 1.0006 0.669922C1.09926 0.669922 1.19696 0.689355 1.28811 0.727111C1.37926 0.764868 1.46208 0.820208 1.53185 0.889973L6.53185 5.88997C6.60169 5.95973 6.65707 6.04259 6.69481 6.1338C6.73256 6.22501 6.75193 6.32277 6.75181 6.42148C6.7517 6.52019 6.7321 6.61791 6.69414 6.70903C6.65617 6.80015 6.6006 6.88288 6.5306 6.95247Z" fill="#E8F0F5"/>
</svg>
